<svg xmlns="http://www.w3.org/2000/svg" xmlns:xlink="http://www.w3.org/1999/xlink" width="32" height="32" viewBox="0 0 32 32">
  <defs>
    <clipPath id="clip-path">
      <rect id="Rectangle_22" data-name="Rectangle 22" width="32" height="32" fill="#fff" stroke="#707070" stroke-width="1"/>
    </clipPath>
  </defs>
  <g id="icon" transform="translate(-220 -1393.189)">
    <g id="globe" transform="translate(220 1393.189)" clip-path="url(#clip-path)">
      <path id="globe-2" data-name="globe" d="M17,1A16,16,0,1,0,33,17,16,16,0,0,0,17,1ZM15.846,3.52a.882.882,0,0,0-.125.2c-.163.8.481.635,1.125.8,0,0,.154,1.282.154,1.443.163.8-.327,1.282-.327,2.077A2.635,2.635,0,0,0,17,9.636h.154c.163,0,.327-.154.644-.308C18.28,9,18.76,8.52,19.241,8.2a8.391,8.391,0,0,0,1.282-1.125,2.89,2.89,0,0,0,.961-1.443,3.071,3.071,0,0,0,.491-1.221,13.463,13.463,0,0,1,3.663,2.154c-.048.019-.1.009-.154.029-.481.163-.8.808-1.125,1.125l-.965,1.436c-.154.163-.317.481-.154.644,0,.163.154.163.317.163.317.163.481.154.8.317.163,0,.327.163.163.317a.16.16,0,0,1-.163.163c-.8.8-1.6,1.443-2.394,2.24a1.224,1.224,0,0,0-.327.635c0,.163.163.163.163.327s-.154.154-.317.317a3.717,3.717,0,0,0-.808.481c-.154.317.009.8-.154,1.125a13.944,13.944,0,0,1-.961,2.231c-.317.481-.481.971-.8,1.443,0,.644-.163,1.125.163,1.606.8,1.115,2.24.481,3.355.952.317.163.644.163.8.481.481.481.481,1.289.644,1.76a9.194,9.194,0,0,0,.635,1.923c.125.625.337,1.192.5,1.74A13.494,13.494,0,0,1,17,30.543a13.636,13.636,0,0,1-3.624-.5,2.359,2.359,0,0,0,.423-.721,12.892,12.892,0,0,1,1.282-1.432,3.37,3.37,0,0,0,.961-.644,3.876,3.876,0,0,0,.635-1.443,2.157,2.157,0,0,0,.174-1.443c0-.317-.163-.466-.481-.635A5.773,5.773,0,0,1,13.639,22.6c-.154-.317-.154-.635-.308-.961A5.011,5.011,0,0,0,11.725,21H8.519c-.481-.163-.8-.8-1.115-1.282,0-.163,0-.481-.327-.481-.317-.163-.635.163-.961,0a.6.6,0,0,1-.154-.481A1.971,1.971,0,0,1,6.6,17.477c.481-.317.961.154,1.443.154.163,0,.163,0,.327.163.466.163.635.808.635,1.282V19.4c0,.154.163.154.327.154.154-.8.154-1.6.308-2.4a2.824,2.824,0,0,1,1.769-2.231c.317-.163.481.154.8,0,.961-.327,3.355-1.282,2.875-2.558a2.564,2.564,0,0,0-2.558-2.086c-.317.163-.481.317-.8.481-.481.317-1.443,1.282-1.923,1.282-.8-.163-.8-1.282-.644-1.76.163-.644,1.606-2.721,2.564-2.394l.644.635a3.03,3.03,0,0,0,1.269.154.563.563,0,0,0,.481-.154c.163-.163.163-.154.163-.317,0-.481-.481-.961-.8-1.282A3.422,3.422,0,0,0,12.2,6.116a6.254,6.254,0,0,0-3.692.35A13.372,13.372,0,0,1,15.846,3.52ZM3.52,18.1A7.736,7.736,0,0,0,5.635,20.2c.644.481,1.923.481,2.564,1.282a3.521,3.521,0,0,1,.32,2.241,7.086,7.086,0,0,0,.961,2.558c.163.481.317,1.125.481,1.606,0,.086.048.414.1.731A13.49,13.49,0,0,1,3.52,18.1Z" transform="translate(-1 -1)" fill="#c9252c"/>
    </g>
  </g>
</svg>
