<svg xmlns="http://www.w3.org/2000/svg" xmlns:xlink="http://www.w3.org/1999/xlink" width="32" height="32" viewBox="0 0 32 32">
  <defs>
    <clipPath id="clip-path">
      <rect id="Rectangle_22" data-name="Rectangle 22" width="32" height="32" fill="#fff" stroke="#707070" stroke-width="1"/>
    </clipPath>
  </defs>
  <g id="team" clip-path="url(#clip-path)">
    <path id="icons8-chat-64" d="M4.362,2A3.375,3.375,0,0,0,1,5.362V16.571a3.375,3.375,0,0,0,3.362,3.362H7.708v4.484l5.99-4.484h6.357a3.375,3.375,0,0,0,3.362-3.362V5.362A3.375,3.375,0,0,0,20.055,2Zm0,2.242H20.055a1.107,1.107,0,0,1,1.121,1.121V16.571a1.107,1.107,0,0,1-1.121,1.121H12.949l-3,2.242V17.692H4.362a1.107,1.107,0,0,1-1.121-1.121V5.362A1.107,1.107,0,0,1,4.362,4.242Zm21.3,4.483v2.242h3.362a1.107,1.107,0,0,1,1.121,1.121V23.3a1.107,1.107,0,0,1-1.121,1.121h-5.6v2.242L20.44,24.417H13.334a1.134,1.134,0,0,1-1.016-.657l-1.8,1.357a3.357,3.357,0,0,0,2.82,1.541h6.357l5.98,4.484V26.659h3.354A3.375,3.375,0,0,0,32.387,23.3V12.087a3.375,3.375,0,0,0-3.362-3.362Z" transform="translate(-1 -0.141)" fill="#c9252c"/>
  </g>
</svg>
