<svg xmlns="http://www.w3.org/2000/svg" xmlns:xlink="http://www.w3.org/1999/xlink" width="32" height="32" viewBox="0 0 32 32">
  <defs>
    <clipPath id="clip-path">
      <rect id="Rectangle_22" data-name="Rectangle 22" width="32" height="32" fill="#fff" stroke="#707070" stroke-width="1"/>
    </clipPath>
  </defs>
  <g id="icon" transform="translate(-220 -1393.189)">
    <g id="team" transform="translate(220 1393.189)" clip-path="url(#clip-path)">
      <path id="team-2" data-name="team" d="M16.078,3a6,6,0,0,0-3.673,10.77,9.911,9.911,0,0,0-2.362,1.35c0-.024.008-.039.008-.063A4.019,4.019,0,1,0,3.14,17.836,6.018,6.018,0,0,0,0,23.1H2.009a4.006,4.006,0,0,1,4.019-4.017,4.1,4.1,0,0,1,.832.087A9.938,9.938,0,0,0,6.028,23.1h2.01a8,8,0,0,1,6.028-7.756v1.727l2.012,2.009,2.009-2.009v-1.73A8,8,0,0,1,24.116,23.1h2.009a9.942,9.942,0,0,0-.811-3.922A3.967,3.967,0,0,1,30.142,23.1h2.009a6.018,6.018,0,0,0-3.14-5.259A4.015,4.015,0,1,0,22.1,15.06v.048a9.924,9.924,0,0,0-2.355-1.332A6,6,0,0,0,16.078,3Zm0,16.078-2.009,2.009V23.1h4.019V21.085Zm0-14.066a4,4,0,1,1-2.846,1.172,4.019,4.019,0,0,1,2.846-1.172ZM6.028,13.048a2,2,0,1,1-1.424.585,2.009,2.009,0,0,1,1.424-.585Zm20.1,0a2,2,0,1,1-1.424.585,2.009,2.009,0,0,1,1.424-.585Z" transform="translate(0 2.373)" fill="#c9252c"/>
    </g>
  </g>
</svg>
