<svg xmlns="http://www.w3.org/2000/svg" width="32.5" height="29.197" viewBox="0 0 32.5 29.197">
  <g id="icon" transform="translate(-219.75 -1394.584)">
    <g id="course" transform="translate(217 1390.874)">
      <path id="Path_6990" data-name="Path 6990" d="M8.437,17.961a3.981,3.981,0,1,1,3.981-3.981,3.981,3.981,0,0,1-3.981,3.981Zm0-6.407a2.428,2.428,0,1,0,2.428,2.428A2.428,2.428,0,0,0,8.437,11.554ZM13.1,27.087a.777.777,0,0,1-.777-.777V24.757a3.884,3.884,0,1,0-7.767,0V26.31A.778.778,0,0,1,3,26.31V24.757a5.437,5.437,0,1,1,10.873,0V26.31a.777.777,0,0,1-.773.777Z" transform="translate(0 5.57)" fill="#c9252c" stroke="#c9252c" stroke-width="0.5"/>
      <path id="Path_6991" data-name="Path 6991" d="M11.99,31.663a.776.776,0,0,1-.7-.488.906.906,0,0,1,.108-.9L22.268,16.137a.734.734,0,0,1,1.095-.1.9.9,0,0,1,.095,1.192L12.585,31.36a.753.753,0,0,1-.6.3ZM5.777,12.453A.814.814,0,0,1,5,11.607V4.843a.811.811,0,0,1,.777-.816.811.811,0,0,1,.776.816v6.764a.814.814,0,0,1-.776.846Z" transform="translate(1.107)" fill="#c9252c" stroke="#c9252c" stroke-width="0.5"/>
      <path id="Path_6992" data-name="Path 6992" d="M33.626,5.553H4.844a.811.811,0,0,1-.817-.776A.811.811,0,0,1,4.844,4H33.626a.811.811,0,0,1,.817.777.811.811,0,0,1-.817.777Z" transform="translate(0.553)" fill="#c9252c" stroke="#c9252c" stroke-width="0.5"/>
      <path id="Path_6993" data-name="Path 6993" d="M20.777,22.64A.777.777,0,0,1,20,21.863V4.777a.777.777,0,1,1,1.553,0V21.863a.777.777,0,0,1-.776.777Z" transform="translate(11.917)" fill="#c9252c" stroke="#c9252c" stroke-width="0.5"/>
      <path id="Path_6994" data-name="Path 6994" d="M25.1,16.553H15.78a.777.777,0,0,1,0-1.553H25.1a.777.777,0,0,1,0,1.553Z" transform="translate(9.151 7.634)" fill="#c9252c" stroke="#c9252c" stroke-width="0.5"/>
      <path id="Path_6995" data-name="Path 6995" d="M22.2,8.553H12.88A.777.777,0,1,1,12.88,7H22.2a.777.777,0,0,1,0,1.553Zm0,3.107H9.777a.777.777,0,0,1,0-1.553H22.2a.777.777,0,0,1,0,1.553Z" transform="translate(4.828 2.145)" fill="#c9252c" stroke="#c9252c" stroke-width="0.5"/>
    </g>
  </g>
</svg>
